<svg version="1.2" xmlns="http://www.w3.org/2000/svg" viewBox="0 0 1000 1000" width="1000" height="1000">
	<title>4-ai</title>
	<defs>
		<linearGradient id="g1" x2="1" gradientUnits="userSpaceOnUse" gradientTransform="matrix(459.851,0,0,661.817,272.165,721.191)">
			<stop offset="0" stop-color="#e8324f"/>
			<stop offset=".5" stop-color="#5955a4"/>
			<stop offset="1" stop-color="#3f8ac8"/>
		</linearGradient>
		<linearGradient id="g2" x2="1" gradientUnits="userSpaceOnUse" gradientTransform="matrix(284.392,2.941,-9.569,925.174,348.862,942.121)">
			<stop offset="0" stop-color="#e8324f"/>
			<stop offset=".5" stop-color="#5955a4"/>
			<stop offset="1" stop-color="#3f8ac8"/>
		</linearGradient>
		<linearGradient id="g3" x2="1" gradientUnits="userSpaceOnUse" gradientTransform="matrix(36.546,0,0,121.992,351.61,940.236)">
			<stop offset="0" stop-color="#e8324f"/>
			<stop offset=".31" stop-color="#5955a4"/>
			<stop offset=".63" stop-color="#4e65ae"/>
			<stop offset="1" stop-color="#3f8ac8"/>
		</linearGradient>
		<linearGradient id="g4" x2="1" gradientUnits="userSpaceOnUse" gradientTransform="matrix(286.896,2.967,-6.403,619.104,347.762,942.261)">
			<stop offset="0" stop-color="#e8324f"/>
			<stop offset=".5" stop-color="#5955a4"/>
			<stop offset="1" stop-color="#3f8ac8"/>
		</linearGradient>
		<linearGradient id="g5" x2="1" gradientUnits="userSpaceOnUse" gradientTransform="matrix(56.833,0,0,123.143,391.656,941.629)">
			<stop offset="0" stop-color="#e8324f"/>
			<stop offset=".31" stop-color="#5955a4"/>
			<stop offset=".63" stop-color="#4e65ae"/>
			<stop offset="1" stop-color="#3f8ac8"/>
		</linearGradient>
		<linearGradient id="g6" x2="1" gradientUnits="userSpaceOnUse" gradientTransform="matrix(287.121,-2.935,11.696,1144.09,346.286,814.276)">
			<stop offset="0" stop-color="#e8324f"/>
			<stop offset=".5" stop-color="#5955a4"/>
			<stop offset="1" stop-color="#3f8ac8"/>
		</linearGradient>
		<linearGradient id="g7" x2="1" gradientUnits="userSpaceOnUse" gradientTransform="matrix(32,0,0,124.875,487.724,815.157)">
			<stop offset="0" stop-color="#e8324f"/>
			<stop offset=".31" stop-color="#5955a4"/>
			<stop offset=".63" stop-color="#4e65ae"/>
			<stop offset="1" stop-color="#3f8ac8"/>
		</linearGradient>
		<linearGradient id="g8" x2="1" gradientUnits="userSpaceOnUse" gradientTransform="matrix(284.358,2.941,-9.569,925.063,347.546,940.061)">
			<stop offset="0" stop-color="#e8324f"/>
			<stop offset=".5" stop-color="#5955a4"/>
			<stop offset="1" stop-color="#3f8ac8"/>
		</linearGradient>
		<linearGradient id="g9" x2="1" gradientUnits="userSpaceOnUse" gradientTransform="matrix(36.546,0,0,121.992,549.488,940.236)">
			<stop offset="0" stop-color="#e8324f"/>
			<stop offset=".31" stop-color="#5955a4"/>
			<stop offset=".63" stop-color="#4e65ae"/>
			<stop offset="1" stop-color="#3f8ac8"/>
		</linearGradient>
		<linearGradient id="g10" x2="1" gradientUnits="userSpaceOnUse" gradientTransform="matrix(286.523,2.964,-6.392,617.93,345.012,940.185)">
			<stop offset="0" stop-color="#e8324f"/>
			<stop offset=".5" stop-color="#5955a4"/>
			<stop offset="1" stop-color="#3f8ac8"/>
		</linearGradient>
		<linearGradient id="g11" x2="1" gradientUnits="userSpaceOnUse" gradientTransform="matrix(56.798,0,0,123.143,589.547,941.629)">
			<stop offset="0" stop-color="#e8324f"/>
			<stop offset=".31" stop-color="#5955a4"/>
			<stop offset=".63" stop-color="#4e65ae"/>
			<stop offset="1" stop-color="#3f8ac8"/>
		</linearGradient>
		<linearGradient id="g12" x2="1" gradientUnits="userSpaceOnUse" gradientTransform="matrix(459.851,0,0,661.817,271.337,720.961)">
			<stop offset="0" stop-color="#e8324f"/>
			<stop offset=".31" stop-color="#5955a4"/>
			<stop offset=".63" stop-color="#4e65ae"/>
			<stop offset="1" stop-color="#3f8ac8"/>
		</linearGradient>
	</defs>
	<style>
		.s0 { fill: url(#g1) } 
		.s1 { fill: url(#g2);stroke: url(#g3);stroke-miterlimit:10 } 
		.s2 { fill: url(#g4);stroke: url(#g5);stroke-miterlimit:10 } 
		.s3 { fill: url(#g6);stroke: url(#g7);stroke-miterlimit:10 } 
		.s4 { fill: url(#g8);stroke: url(#g9);stroke-miterlimit:10 } 
		.s5 { fill: url(#g10);stroke: url(#g11);stroke-miterlimit:10 } 
		.s6 { fill: none;stroke: url(#g12);stroke-miterlimit:10 } 
	</style>
	<g id="Layer 1">
		<g id="&lt;Group&gt;">
		</g>
		<g id="&lt;Group&gt;">
			<path id="&lt;Path&gt;" class="s0" d="m731.7 515.8c-0.5 1.1-1.3 2.1-2.3 2.9q-4.2 2.1-9.4 4.1c-3.5 1.4-6.2 2.3-9 3.1 1 0.8 1.9 1.3 2.6 2 2 1.3 3.4 3.3 4.2 5.5 0.8 3.3-1.2 6.6-4.5 7.4q-0.3 0-0.5 0.1-4.2 0.3-8.3-0.2c-1.8 0-3.4-0.6-5.8-1 3.1 4.4 4.5 8.6 1.5 13.1-2.6 3.8-7.1 5.9-11.6 5.3q-0.3 1.9-0.9 3.8c-1.9 4.2-6.6 6.4-11.1 5.1l-1.1-0.3c-1-0.4-2.2 0.2-2.5 1.3q0 0 0 0c-1.7 5-6.9 8-12 7q-2.7-0.7-5.2-1.9c-1.4-0.6-1.5 0.5-1.8 1.2-0.9 2.1-2.5 3.9-4.6 4.9-4 1.9-8.8 1.5-12.3-1.2-1.5-1-2.9-2.1-4.4-3.4-1 3.7-4 6.6-7.8 7.4-3.8 0.6-7.7-0.7-10.5-3.4-1.3 4.3-5 7.4-9.4 7.8-4.7 0.4-7.9-2.5-11.1-5.2q-1.3 1.9-2.8 3.7c-4.5 4.5-8.5 4.3-13.4 1.3-0.9-0.6-1.4-0.7-1.9 0.2-2.8 4.6-8.8 6.1-13.4 3.3q-1.1-0.6-2-1.5c-0.6-0.6-1.3-1-2.2-1.7-1.6 3.7-5.3 6.1-9.3 5.9-3.9-0.6-7.3-2.9-9.4-6.2-1.3 2.5-2.4 4.6-3.4 6.7-1 2.2-2.3 4.6-3.1 6.8-1.8 5.2-3.7 10.4-5.2 15.7-0.6 2.5-0.3 5 0.7 7.3 1.4 3.4 2.3 7.2 3.8 10.7 2.8 6.2 6.5 11.9 11.1 17 7.3 8 15.4 15.3 24.1 21.8q4.8 3.8 10 7c4.3 2.8 8.5 5.9 13 8.5 5.3 3 10.6 5.8 15.9 8.6 2.6 1.4 5.1 2.6 7.6 4 2.5 1.2 4.4 3.2 5.6 5.7 1.3 3.4 0 7.3-3.1 9.2-3.6 2.9-8.5 3.5-12.7 1.7-6.9-2.3-13.5-5.4-19.7-9.3-3.4-1.9-6.5-3.7-9.7-5.6q-0.8-0.3-1.6-0.5c0.6 1.5 1.1 2.7 1.6 3.8 2.3 4 1 9.2-3 11.5q-0.8 0.5-1.7 0.8c-2.3 0.6-4.8 0.6-7.2 0-6.1-2-11.7-5.3-16.3-9.8-0.5-0.4-1.1-0.9-1.7-1.4-0.3 2-0.5 3.7-0.7 5.4q-0.2 1.3-0.8 2.4c-0.5 1.3-1.3 2.4-2.3 3.4q-1.4 1.3-3.1 2h-0.4c-2.1 0.7-4.5 0.6-6.6-0.3-0.4-0.2-0.7-0.3-4-3.1-3.4-2.9-3.8-3.3-4.6-4l-2.2-2.1c-0.2 3.6-1.8 7-4.4 9.4-1.3 1-2.8 1.5-4.4 1.4-1.4-0.1-2.7-0.6-3.7-1.4q-1.2-1-2.1-2.2-1.3-1.4-2.2-3.1-0.8 1.6-1.9 3-1 1.3-2.2 2.3c-1.2 1-2.7 1.6-4.3 1.7-1.1 0-2.3-0.2-3.4-0.8q-1.3-0.9-2.3-2.1-0.8-0.9-1.3-2-0.5-1.1-0.7-2.3c0-0.6 0-0.8-0.4-1.9 0-0.2 0-0.5-0.2-0.9-0.2-0.4 0-0.5-0.2-0.7q-0.2-0.1-0.4 0l-0.5 0.4c-3 2.9-6.3 5.4-10 7.4q-1.8 0.8-3.8 1.2-0.7 0.2-1.4 0.2-0.9 0-1.7-0.2c-1.3-0.5-2.6-1.3-3.6-2.4-1.3-1.6-2.2-3.5-2.5-5.5-0.4-1.8-0.5-3.5-0.3-5.3-0.2 0-0.4 0-0.5 0.2-0.7 0.5-1.4 1-2 1.5-4.4 4.4-9.9 7.6-15.9 9.4-2.5 0.7-5.2 0.6-7.7-0.3-4.2-1.5-6.4-6.2-4.8-10.4q0.1-0.5 0.4-1c0.6-1.5 1.3-3 2.1-4.7q-0.5 0.1-0.9 0.3c-4 2.3-8 4.4-11.9 6.8-5.1 3.2-10.6 5.9-16.3 7.8-4.3 1.5-8.7 3.1-13 0.4-3.2-2-5.9-4.3-5.5-8.5 0.7-3.5 3.1-6.5 6.4-7.7 5.7-3.1 11.6-5.8 17.3-9 6.8-3.9 13.2-7.9 19.6-12.3 11.6-7.6 22.3-16.6 31.9-26.7q5.2-6 9.5-12.5c3-4.9 5.2-10.1 6.5-15.6 0.8-1.9 1.3-3.8 1.4-5.8-0.2-3.1-0.8-6.1-1.9-9-2.4-6.4-5.2-12.6-7.8-18.9-0.6-1.5-1.4-2.8-2.2-4.5-1.9 3.5-5.4 5.9-9.4 6.4-4.1 0.2-7.8-2.2-9.3-5.9-0.6 0.4-1.1 0.8-1.6 1.2-4.3 3.7-11.2 5.8-15.8-1.1-0.7-1-1.3-1.1-2.3-0.4-2 1.6-4.4 2.3-6.8 2.2-3.6-0.4-6.7-2.6-8.3-5.7-0.9-1.8-1-1.9-2.5-0.4l-0.8 0.8c-5.4 4.6-12.5 5-16.9-1.8q-0.9-1.4-1.6-2.9c-2.6 2.9-6.4 4.3-10.2 3.7-3.8-0.7-6.8-3.5-7.8-7.2-1.9 1.3-3.6 2.7-5.5 3.7-5 3.4-11.7 2.1-15-2.9q-0.6-0.9-1-1.9c-0.3-0.8-0.8-0.9-1.6-0.6q-2.6 1.1-5.4 1.8c-5.1 1-10.3-2-12-7-0.5-1.8-1.3-1.7-2.5-1.3l-1.8 0.4c-3 0.6-6.2-0.3-8.4-2.4-1.8-1.7-2.7-4.1-2.6-6.5-4.6 0.4-9.1-1.7-11.8-5.5-3.1-4.5-1.6-8.6 1.6-13-2.4 0.4-4.1 0.8-5.8 1q-4.2 0.5-8.3 0.2c-3.4-0.5-5.6-3.6-5.2-6.9q0.2-1.2 0.9-2.2 2.2-2.7 4.8-4.9 0.5-0.4 1-0.7c-0.2-0.3-0.3-0.5-0.4-0.5-3.7-1.3-5.9-1.9-11.3-3.8q-2.3-0.9-4.4-2.1-2.4-1.3-4.7-3c-0.9-0.6-1.5-1.6-1.7-2.7-0.1-1.1 0.1-2.2 0.7-3.1 0.7-1 1.6-1.9 2.8-2.5 3.2-1.5 6.8-2.1 10.4-1.7h13.6l45.2-1c34.2-0.7 37.4-0.8 41.5-0.8 9 0 18-0.5 27-0.7 7.2 0 14.3-0.2 21.5-0.4 7.9-0.1 15.8-0.4 23.8-0.6 1 0 1.6-0.3 1.3-1.5q-0.3-2.4-0.8-4.8c-1.2-4.7-1.5-9.7-0.8-14.6 0.3-4.7 1.5-9.3 3.3-13.6q1.5-4 3.4-7.7 4.5-7.9 9.6-15.5c3.7-5.4 7.9-10.4 11.8-15.7 0.7-1 1.1-2.2 1.2-3.4 0.5-8.6 1-17.3 1.4-26l0.7-15.4c0.3-7.1 0.7-14.2 1-21.3q0-2.5 0-5 0.5-12.7 0.9-25.4c0.3-7.7 0.5-15.4 0.8-23.1l1-31.9c0.3-8.2 0.6-16.4 1-24.7q0.5-13.2 1-26.4 0.3-8.2 0.7-16.3c0.3-9.1 0.6-18.2 1-27.2 0.3-6.8 0.7-13.9 1-20.8q0.5-12.9 1-25.8c0.3-8.8 0.6-17.7 1-26.5 0.4-8.8 0.6-17.4 1-26 0.2-5.3 0.5-10.7 0.7-16 0-2.5 0.2-5.1 0.3-7.7q0.2-0.7 0.4-1.4h0.5q0.3 0.5 0.4 1.1c0 2 0.3 4 0.4 6 0.2 9.1 0.4 18.2 0.7 27.4 0.3 9.1 0.6 17.5 1 26.3 0.4 8.8 0.7 16.8 1 25.2 0.2 5.4 0.4 10.8 0.7 16.3 0.3 7.7 0.6 15.5 1 23.3 0.5 11.4 0.9 22.9 1.3 34.4 0.4 7.7 0.8 15.4 1.2 23.1 0.3 6.4 0.4 12.9 0.5 19.3 0.3 8.9 0.9 17.8 1.3 26.6 0 2.8 0.3 5.5 0.4 8.3 0.3 12.7 0.6 25.5 1 38.2 0.3 8 0.7 15.9 1 23.8q0.6 13.4 1 26.7c0.2 4.9 0.5 9.8 0.7 14.8q0.5 13.2 1 26.5c0.1 0.7 0.3 1.4 0.8 2 3.5 4.7 7.5 9.1 10.8 13.9q6.9 9.8 12.4 20.3c2.2 4.5 4 9.2 5.2 14q0.7 2.4 0.7 4.9c0 4.9 0 9.7-0.4 14.5q-0.5 3.4-1.4 6.8 0.9 0.2 1.9 0.3 5.1 0 10.2 0l32.2 0.6c5.9 0 11.7 0.4 17.6 0.6h6.8c6 0 16.2 0.3 34.3 0.9 11.7 0.4 21.3 0.6 27.9 0.7l20.9 0.3h6.3l19.4 0.3c1.7 0.1 3.4 0.5 4.9 1.2 1.1 0.3 2 0.9 2.7 1.8q0.5 0.6 0.7 1.4c0.5 1.5 0.6 3.1 0.1 4.6z"/>
			<g id="&lt;Group&gt;">
				<path id="&lt;Path&gt;" class="s1" d="m381.8 829.1v84.7c-0.1 2.1 0.4 4.3 1.5 6.1 1.2 1.3 3 2 4.9 1.8v4.4q-32.1 14.1-32.3 14.1l-2.6-5.1c1.1 0 2.2-0.4 3.1-1q1.8-1.1 3.1-2.6c2.5-3.3 3.7-7.4 3.4-11.5v-78.2c0.1-2-0.7-4-2.2-5.4-1.1-1.3-2.6-2.2-4.1-2.7-1.3-0.4-2.9-0.8-4.9-1.2v-3.4l20.7-10.6c2.5 1 4.7 2.6 6.5 4.6 1.7 1.6 2.7 3.7 2.9 6z"/>
				<g id="&lt;Group&gt;">
					<path id="&lt;Path&gt;" class="s2" d="m429.5 917.4l-0.2-11.1v-6.6c0-7.8-0.5-12.5-1.7-14.1-1.1-1.7-3-2.7-5.1-2.7-3.7 0.1-7.5 0.9-10.9 2.4l-1.7 0.8-1.6-5.7c8.5-4.5 15.6-8 21-10.4v-26.6q0-13-6.8-13c-1.8 0-3.5 0.8-4.7 2.2-1.3 1.5-2 3.4-1.9 5.4v8.7c0 1.3-0.5 2.5-1.4 3.4-1.8 1.4-3.9 2.4-6.1 3.1l-14.4 5.5-2.2-2.2c2.7-2.8 4.2-6.6 4.1-10.5v-12q0-1.1 18.1-8.3 18.1-7.2 20.9-7.2 2.7 0 8.1 6.5c3.1 3.1 5.1 7.3 5.5 11.7v30.6c0 1.6-2.8 3.8-8.4 6.8 5.1 5.4 8 12.5 8.2 19.9v31.7c0 2.3-6.3 5.5-19 9.7-12.6 4.1-20.8 6.2-24.4 6.2-1.2 0-2.2-1.1-2.9-3.4q-1.2-3.9-1.9-8c-0.2-2-0.8-4-1.7-5.9-1.6-2-4.1-3.1-6.7-3v-3q18.8-9.4 22.8-9.4c0.5 0 0.8 0.6 0.9 1.7 0.1 1.1 0 3.4 0 6.8-0.1 3.1 0.6 6.3 2.1 9.1 0.8 2.2 2.9 3.7 5.3 3.9 4.3 0 6.4-3.4 6.4-9.9z"/>
					<path id="&lt;Compound Path&gt;" class="s3" d="m513.2 860.7v56c0 6.4 2.2 10.2 6.5 10.9v3.4l-16 9c-2.5-1-4.7-2.6-6.5-4.7-1.7-1.5-2.8-3.7-3-6v-56.1c0-6.4-2.1-10.2-6.5-10.9v-3.4l16-9c2.5 1 4.7 2.6 6.5 4.7 1.8 1.6 2.8 3.8 3 6.1zm-21.3-30.5v-9.6c2-1.4 4.2-2.4 6.5-3q3.7-1.6 7.6-2.4c0.7 0 1.7 0.9 3 2.6 1.3 1.6 2 3.6 2 5.6v11.6c-1.9 1.3-4.1 2.2-6.3 2.9q-3.8 1.7-7.8 2.4-1.4 0-3.4-2.7c-1.2-2.3-1.8-4.8-1.6-7.4z"/>
					<path id="&lt;Path&gt;" class="s4" d="m579.7 829.1v84.7c-0.2 2.1 0.3 4.3 1.4 6.1 1.3 1.3 3.1 2 4.9 1.8v4.4c-21.4 9.4-32.1 14.1-32.3 14.1l-2.5-5.1c1.1 0 2.2-0.4 3.1-1q1.7-1.1 3.1-2.6c2.5-3.3 3.7-7.4 3.4-11.5v-78.2c0.1-2-0.8-4-2.2-5.4-1.2-1.3-2.6-2.2-4.2-2.7-1.2-0.4-2.8-0.8-4.8-1.2v-3.4l20.7-10.6c2.5 1 4.7 2.6 6.5 4.6 1.6 1.6 2.7 3.7 2.9 6z"/>
					<g id="&lt;Group&gt;">
						<path id="&lt;Path&gt;" class="s5" d="m627.3 917.4v-11.1-6.6c0-7.8-0.6-12.5-1.7-14.1-1.1-1.7-3-2.7-5.1-2.7-3.7 0.1-7.5 0.9-10.9 2.4l-1.8 0.8-1.5-5.7c8.5-4.5 15.5-8 21-10.4v-26.6q0-13-6.8-13c-1.8 0-3.5 0.8-4.6 2.2-1.3 1.5-2.1 3.4-2 5.4v8.7c0 1.2-0.5 2.5-1.3 3.4-1.9 1.4-3.9 2.4-6.1 3.1l-14.5 5.5-2.2-2.2c2.8-2.8 4.2-6.6 4.2-10.5v-12q0-1.1 18.1-8.3 18.1-7.2 20.8-7.2 2.7 0 8.2 6.5c3.1 3.1 5 7.3 5.4 11.7v30.6c0 1.6-2.8 3.8-8.4 6.8 5.1 5.4 8.1 12.5 8.3 19.9v31.7c0 2.3-6.4 5.5-19 9.7-12.7 4.1-20.8 6.2-24.4 6.2-1.3 0-2.3-1.1-2.9-3.4q-1.2-3.9-1.9-8c-0.3-2-0.9-4-1.7-5.9-1.7-2-4.2-3.1-6.8-3v-3q18.9-9.4 22.8-9.4c0.5 0 0.8 0.6 0.9 1.7 0.2 1.1 0.2 3.4 0.2 6.8-0.1 3.1 0.6 6.3 2.1 9.1 0.8 2.2 3 3.7 5.4 3.9 4.2 0 6.3-3.4 6.3-9.9z"/>
						<path id="&lt;Path&gt;" class="s6" d="m730.9 515.5c-0.5 1.2-1.3 2.2-2.3 2.9q-4.2 2.2-9.4 4.2c-3.5 1.4-6.3 2.2-9.1 3.1 1.1 0.8 1.9 1.3 2.7 2 1.9 1.3 3.4 3.3 4.2 5.5 0.7 3.3-1.3 6.6-4.5 7.3q-0.3 0.1-0.6 0.1-4.1 0.4-8.3-0.2c-1.7 0-3.4-0.5-5.7-0.9 3.1 4.3 4.5 8.6 1.5 13.1-2.6 3.8-7.1 5.8-11.7 5.3q-0.2 1.9-0.8 3.8c-1.9 4.2-6.6 6.4-11.1 5.1l-1.1-0.4c-1.1-0.3-2.2 0.3-2.5 1.3q0 0.1-0.1 0.1c-1.7 5-6.8 8-12 7q-2.6-0.7-5.1-1.9c-1.4-0.6-1.5 0.5-1.8 1.1-0.9 2.2-2.5 3.9-4.6 5-4 1.9-8.8 1.4-12.4-1.3-1.5-0.9-2.8-2.1-4.3-3.4-1 3.8-4 6.7-7.8 7.5-3.8 0.5-7.7-0.7-10.5-3.4-1.3 4.3-5 7.3-9.5 7.8-4.6 0.4-7.9-2.5-11-5.3q-1.3 2-2.9 3.8c-4.4 4.5-8.4 4.3-13.4 1.2-0.8-0.5-1.3-0.6-1.9 0.3-2.8 4.6-8.8 6.1-13.4 3.3q-1-0.7-1.9-1.6c-0.7-0.5-1.4-1-2.2-1.6-1.6 3.7-5.3 6.1-9.3 5.9-3.9-0.6-7.4-2.9-9.5-6.3-1.2 2.6-2.4 4.7-3.4 6.8-0.9 2.1-2.2 4.6-3 6.8-1.9 5.2-3.7 10.4-5.2 15.7-0.6 2.4-0.4 5 0.6 7.2 1.5 3.4 2.3 7.3 3.8 10.8 2.9 6.2 6.6 11.9 11.2 17 7.3 8 15.3 15.3 24 21.8q4.9 3.7 10.1 7c4.3 2.7 8.5 5.9 13 8.5 5.2 3 10.6 5.7 15.9 8.6 2.5 1.3 5.1 2.6 7.6 4 2.4 1.2 4.4 3.2 5.5 5.6 1.4 3.5 0.1 7.4-3.1 9.3-3.5 2.9-8.4 3.5-12.6 1.7-6.9-2.3-13.5-5.4-19.7-9.3-3.4-1.9-6.5-3.8-9.8-5.6q-0.7-0.4-1.5-0.5c0.6 1.5 1 2.6 1.5 3.8 2.4 4 1 9.1-3 11.5q-0.7 0.4-1.6 0.7c-2.4 0.7-4.9 0.7-7.3 0-6.1-1.9-11.6-5.2-16.2-9.7-0.5-0.5-1.1-0.9-1.7-1.4-0.3 2-0.5 3.7-0.8 5.4q-0.1 1.2-0.7 2.4c-0.6 1.2-1.4 2.4-2.4 3.4q-1.3 1.2-3.1 2h-0.3c-2.2 0.7-4.5 0.5-6.6-0.3-0.5-0.2-0.7-0.4-4.1-3.2-3.3-2.8-3.7-3.2-4.5-3.9l-2.2-2.1c-0.2 3.6-1.8 6.9-4.4 9.4-1.3 1-2.8 1.4-4.4 1.4-1.4-0.1-2.7-0.6-3.8-1.4q-1.1-1-2.1-2.2-1.2-1.5-2.1-3.2-0.8 1.7-2 3.1-0.9 1.2-2.1 2.3c-1.2 1-2.7 1.6-4.3 1.7-1.2 0-2.3-0.3-3.4-0.8q-1.3-0.9-2.3-2.2-0.8-0.8-1.3-1.9-0.5-1.1-0.7-2.3c0-0.6 0-0.8-0.4-1.9 0-0.2 0-0.6-0.2-1-0.2-0.4 0-0.5-0.2-0.6q-0.2-0.1-0.4 0l-0.5 0.4c-3 2.9-6.3 5.4-10 7.3q-1.9 0.9-3.8 1.3-0.7 0.2-1.5 0.2-0.8 0-1.6-0.2c-1.4-0.6-2.6-1.4-3.6-2.4-1.3-1.6-2.2-3.5-2.5-5.6-0.4-1.7-0.5-3.5-0.3-5.2-0.2 0-0.5 0-0.6 0.1-0.6 0.6-1.3 1.1-1.9 1.6-4.5 4.4-9.9 7.6-15.9 9.4-2.6 0.6-5.2 0.5-7.7-0.3-4.3-1.5-6.4-6.2-4.9-10.5q0.2-0.4 0.5-0.9c0.5-1.5 1.3-3 2.1-4.7q-0.5 0.1-1 0.3c-3.9 2.2-7.9 4.4-11.8 6.8-5.1 3.2-10.6 5.8-16.3 7.8-4.3 1.5-8.8 3.1-13.1 0.4-3.1-2-5.9-4.3-5.4-8.6 0.6-3.5 3-6.4 6.4-7.7 5.7-3 11.6-5.7 17.2-8.9 6.8-3.9 13.3-8 19.7-12.3 11.6-7.7 22.3-16.7 31.8-26.8q5.2-5.9 9.6-12.5c2.9-4.8 5.2-10.1 6.5-15.6 0.8-1.8 1.3-3.8 1.4-5.8-0.2-3-0.8-6.1-1.9-8.9-2.4-6.4-5.2-12.6-7.8-18.9-0.7-1.5-1.4-2.9-2.3-4.5-1.9 3.5-5.4 5.9-9.3 6.4-4.1 0.2-7.8-2.2-9.3-6-0.6 0.5-1.2 0.9-1.7 1.3-4.2 3.7-11.1 5.7-15.7-1.2-0.7-0.9-1.3-1-2.4-0.3-1.9 1.5-4.3 2.3-6.8 2.1-3.5-0.3-6.6-2.5-8.2-5.6-1-1.9-1-1.9-2.5-0.4l-0.8 0.7c-5.4 4.7-12.5 5.1-17-1.7q-0.8-1.4-1.5-2.9c-2.6 2.8-6.4 4.2-10.2 3.7-3.8-0.7-6.9-3.5-7.8-7.3-2 1.4-3.7 2.7-5.5 3.8-5 3.4-11.7 2.1-15-2.9q-0.7-0.9-1.1-1.9c-0.2-0.9-0.7-1-1.5-0.6q-2.6 1.1-5.4 1.8c-5.2 1-10.3-2-12-7-0.6-1.8-1.3-1.7-2.5-1.3l-1.8 0.4c-3.1 0.6-6.2-0.3-8.4-2.4-1.8-1.7-2.7-4.1-2.6-6.6-4.6 0.5-9.1-1.6-11.8-5.4-3.1-4.6-1.6-8.6 1.6-13-2.4 0.4-4.1 0.8-5.9 0.9q-4.1 0.6-8.3 0.3c-3.3-0.5-5.6-3.6-5.1-6.9q0.2-1.2 0.8-2.3 2.3-2.6 4.9-4.8 0.4-0.4 1-0.8c-0.2-0.2-0.3-0.4-0.5-0.4-3.7-1.3-5.8-1.9-11.2-3.9q-2.3-0.8-4.4-2.1-2.5-1.3-4.7-2.9c-0.9-0.7-1.5-1.6-1.7-2.7-0.2-1.1 0.1-2.2 0.7-3.1 0.7-1.1 1.6-1.9 2.7-2.5 3.3-1.5 6.9-2.1 10.5-1.7h13.6l45.2-1c34.2-0.7 37.3-0.9 41.5-0.9 9 0 18-0.4 27-0.6 7.1 0 14.3-0.2 21.5-0.4 7.9-0.2 15.7-0.4 23.8-0.6 1 0 1.6-0.3 1.3-1.6q-0.3-2.3-0.9-4.7c-1.1-4.8-1.4-9.7-0.8-14.6 0.4-4.7 1.5-9.3 3.4-13.6q1.4-4 3.4-7.7 4.5-8 9.6-15.5c3.7-5.4 7.9-10.4 11.8-15.7 0.7-1 1.1-2.2 1.2-3.4 0.5-8.7 0.9-17.3 1.4-26l0.7-15.4c0.3-7.1 0.6-14.2 0.9-21.3q0-2.5 0-5 0.5-12.7 1-25.4c0.3-7.7 0.5-15.4 0.7-23.2l1.1-31.8c0.3-8.3 0.6-16.5 0.9-24.7q0.5-13.2 1.1-26.5 0.3-8.1 0.6-16.2c0.4-9.1 0.7-18.2 1.1-27.2 0.3-6.8 0.6-13.9 0.9-20.8q0.6-12.9 1.1-25.8c0.3-8.9 0.6-17.7 1-26.5 0.3-8.9 0.6-17.4 1-26.1 0.2-5.3 0.4-10.6 0.6-15.9 0-2.6 0.2-5.1 0.4-7.7q0.1-0.7 0.4-1.5h0.4q0.3 0.6 0.5 1.2c0 2 0.3 4 0.3 6 0.3 9.1 0.5 18.2 0.8 27.4 0.2 9.1 0.6 17.5 1 26.3 0.4 8.7 0.6 16.8 1 25.2 0.2 5.4 0.4 10.8 0.6 16.2 0.3 7.8 0.7 15.6 1.1 23.3 0.4 11.5 0.9 23 1.3 34.5 0.3 7.7 0.8 15.4 1.2 23.1 0.3 6.4 0.3 12.9 0.5 19.3 0.3 8.9 0.8 17.7 1.3 26.6 0 2.8 0.3 5.5 0.3 8.2 0.4 12.8 0.7 25.5 1.1 38.3 0.2 8 0.6 15.9 1 23.8q0.5 13.3 1 26.7c0.2 4.9 0.4 9.8 0.7 14.7q0.5 13.3 1 26.5c0 0.8 0.3 1.5 0.8 2.1 3.5 4.7 7.5 9 10.8 13.8q6.8 9.8 12.4 20.4c2.2 4.5 3.9 9.2 5.2 14q0.7 2.4 0.7 4.9c0 4.8 0 9.6-0.4 14.5q-0.5 3.4-1.4 6.8 0.9 0.2 1.8 0.2 5.1 0 10.2 0l32.3 0.7c5.8 0 11.7 0.4 17.6 0.5h6.8c6 0 16.2 0.4 34.2 0.9 11.8 0.5 21.4 0.7 28 0.8l20.9 0.3h6.2l19.5 0.3c1.7 0.1 3.3 0.5 4.9 1.1 1.1 0.3 2 1 2.7 1.8q0.5 0.7 0.6 1.5c0.6 1.5 0.6 3.1 0.2 4.5z"/>
					</g>
				</g>
			</g>
		</g>
	</g>
</svg>